# Created by FreeCAD <http://www.freecadweb.org>
v 3.479740 -0.985106 9.841226
v 3.787370 -0.877030 10.244571
v 3.479740 -4.848809 10.876501
v 3.787370 -4.740733 11.279847
v 4.045337 -0.760574 10.679193
v 4.045337 -4.624277 11.714469
v 4.250270 -0.637259 11.139410
v 4.250270 -4.500962 12.174686
v 4.399491 -0.508696 11.619211
v 4.399491 -4.372399 12.654488
v 4.491051 -0.376566 12.112328
v 4.491051 -4.240270 13.147603
v 4.523753 -0.242595 12.612314
v 4.523753 -4.106298 13.647591
v 4.497170 -0.108533 13.112639
v 4.497170 -3.972237 14.147916
v 4.411649 0.023867 13.606766
v 4.411649 -3.839836 14.642042
v 4.268308 0.152877 14.088238
v 4.268308 -3.710826 15.123513
v 4.069020 0.276810 14.550762
v 4.069020 -3.586893 15.586039
v 3.816388 0.394048 14.988298
v 3.816388 -3.469656 16.023575
v 3.513714 0.503057 15.395126
v 3.513714 -3.360646 16.430403
v 3.479740 -1.539288 7.772989
v 3.479740 -5.402992 8.808265
v 2.484154 0.286747 14.587844
v 2.484154 -3.576957 15.623120
v -4.949705 -1.808241 6.769244
v -3.493362 -1.538977 7.774153
v -4.949705 -2.283612 4.995135
v -1.364179 -1.538977 7.774153
v -3.493362 -0.985049 9.841436
v -2.418328 -0.778480 10.612363
v -2.105114 -0.859791 10.308908
v -1.751466 -0.929110 10.050205
v -4.050976 -0.762541 10.671851
v -2.685089 -0.686741 10.954740
v -3.796474 -0.877875 10.241417
v -1.364179 -0.985106 9.841226
v -4.253624 -0.640516 11.127254
v -2.900273 -0.586335 11.329457
v -4.401834 -0.513357 11.601819
v -3.059744 -0.479193 11.729319
v -4.493719 -0.382684 12.089497
v -3.160438 -0.367372 12.146639
v 1.403718 -1.538977 7.774153
v -4.504554 -0.117484 13.079236
v -3.200420 -0.253022 12.573400
v -4.528105 -0.250163 12.584070
v 5.046158 -2.283612 4.995135
v -3.178922 -0.138340 13.001401
v -4.423368 0.013663 13.568681
v -3.096357 -0.025528 13.422419
v -4.285581 0.141605 14.046167
v -4.092948 0.264711 14.505607
v -2.954312 0.083244 13.828362
v -2.755516 0.185888 14.211434
v -3.847927 0.381413 14.941144
v 5.046158 -1.813067 6.751234
v 1.787871 -0.923125 10.072542
v 1.403718 -0.980199 9.859539
v -2.503788 0.280430 14.564271
v -3.553640 0.490223 15.347227
v 2.137836 -0.852849 10.334814
v 2.446886 -0.770722 10.641317
v 2.709083 -0.678322 10.986159
v 2.919387 -0.577425 11.362713
v 3.073756 -0.469969 11.763742
v 3.169225 -0.358021 12.181539
v 3.203957 -0.243731 12.608074
v 3.177285 -0.129296 13.035151
v 3.089723 -0.016916 13.454560
v 2.942953 0.091250 13.858243
v 2.739795 0.193124 14.238440
v -3.493362 -5.402680 8.809429
v -4.949705 -5.671944 7.804520
v -4.949705 -6.421639 5.006619
v -1.364179 -5.402680 8.809429
v -2.418328 -4.642184 11.647639
v -3.493362 -4.848753 10.876713
v -2.105114 -4.723494 11.344184
v -1.751466 -4.792813 11.085482
v -2.685089 -4.550444 11.990015
v -4.050976 -4.626244 11.707128
v -3.796474 -4.741579 11.276693
v -1.364179 -4.848809 10.876501
v -2.900273 -4.450039 12.364734
v -4.253624 -4.504219 12.162530
v -3.059744 -4.342896 12.764595
v -4.401834 -4.377060 12.637094
v -3.160438 -4.231076 13.181915
v -4.493719 -4.246387 13.124772
v 1.403718 -5.402680 8.809429
v 5.046158 -6.421639 5.006619
v -3.200420 -4.116725 13.608675
v -4.504554 -3.981187 14.114512
v -4.528105 -4.113866 13.619347
v -3.178922 -4.002043 14.036676
v -4.423368 -3.850041 14.603957
v -3.096357 -3.889232 14.457694
v -4.285581 -3.722099 15.081444
v -2.954312 -3.780459 14.863639
v -4.092948 -3.598992 15.540883
v -2.755516 -3.677815 15.246710
v -3.847927 -3.482290 15.976420
v 5.046158 -5.676770 7.786510
v 1.787871 -4.786829 11.107818
v 1.403718 -4.843902 10.894815
v -2.503788 -3.583273 15.599547
v -3.553640 -3.373481 16.382504
v 2.137836 -4.716553 11.370090
v 2.446886 -4.634426 11.676593
v 2.709083 -4.542026 12.021436
v 2.919387 -4.441128 12.397989
v 3.073756 -4.333673 12.799018
v 3.169225 -4.221724 13.216815
v 3.203957 -4.107434 13.643351
v 3.177285 -3.993000 14.070427
v 3.089723 -3.880619 14.489837
v 2.942953 -3.772453 14.893518
v 2.739795 -3.670579 15.273715
vn 0.805107 -0.153513 -0.572919
vn 0.805108 -0.153513 -0.572918
vn 0.867536 -0.128730 -0.480427
vn 0.867536 -0.128730 -0.480427
vn 0.918628 -0.102265 -0.381659
vn 0.918628 -0.102265 -0.381659
vn 0.957718 -0.074464 -0.277903
vn 0.957718 -0.074464 -0.277903
vn 0.984295 -0.045690 -0.170518
vn 0.984295 -0.045690 -0.170517
vn 0.998010 -0.016319 -0.060903
vn 0.998010 -0.016319 -0.060903
vn 0.998686 0.013265 0.049507
vn 0.998686 0.013265 0.049507
vn 0.986312 0.042676 0.159271
vn 0.986312 0.042676 0.159271
vn 0.961051 0.071530 0.266953
vn 0.961052 0.071530 0.266952
vn 0.923234 0.099448 0.371147
vn 0.923233 0.099449 0.371147
vn 0.873353 0.126068 0.470490
vn 0.873353 0.126068 0.470490
vn 0.812060 0.151040 0.563690
vn 0.812060 0.151040 0.563690
vn 1.000000 0.000000 -0.000000
vn 1.000000 0.000000 0.000000
vn -0.630249 0.200945 0.749938
vn -0.630249 0.200945 0.749938
vn 0.000000 0.965926 -0.258819
vn 0.000000 0.965926 -0.258819
vn 0.000000 0.965926 -0.258819
vn 0.000000 0.965926 -0.258819
vn -0.000000 0.965926 -0.258819
vn 0.000000 0.965926 -0.258819
vn 0.000000 0.965926 -0.258819
vn 0.000000 0.965926 -0.258819
vn -0.000000 0.965926 -0.258819
vn 0.000000 0.965926 -0.258819
vn -0.000000 0.965926 -0.258819
vn 0.000000 0.965926 -0.258819
vn -0.000000 0.965926 -0.258819
vn -0.000000 0.965926 -0.258819
vn -0.000000 0.965926 -0.258819
vn -0.000000 0.965926 -0.258819
vn 0.000000 0.965926 -0.258819
vn 0.000000 0.965926 -0.258819
vn 0.000000 0.965926 -0.258819
vn -0.000000 0.965926 -0.258819
vn 0.000000 0.965926 -0.258819
vn 0.000000 0.965926 -0.258819
vn 0.000000 0.965926 -0.258819
vn 0.000000 0.965926 -0.258819
vn 0.000000 0.965926 -0.258819
vn -0.000000 0.965926 -0.258819
vn -0.000000 0.965926 -0.258819
vn -0.000000 0.965926 -0.258819
vn 0.000000 0.965926 -0.258819
vn 0.000000 0.965926 -0.258819
vn -0.000000 0.965926 -0.258819
vn -0.000000 0.965926 -0.258819
vn 0.000001 0.965926 -0.258819
vn -0.000000 0.965926 -0.258819
vn -0.000000 0.965926 -0.258819
vn -0.000000 0.965926 -0.258820
vn 0.000000 0.965926 -0.258819
vn 0.000000 0.965926 -0.258819
vn -0.000000 0.965926 -0.258819
vn -0.000000 0.965926 -0.258819
vn -0.000000 0.965926 -0.258819
vn 0.000000 0.965926 -0.258819
vn 0.000000 0.965926 -0.258819
vn 0.000000 0.965926 -0.258819
vn -0.000000 0.965926 -0.258819
vn -0.000000 0.965926 -0.258819
vn 0.000000 0.965926 -0.258819
vn 0.000000 0.965926 -0.258819
vn -0.000000 0.965926 -0.258819
vn -0.000000 0.965926 -0.258819
vn -0.000000 0.965926 -0.258819
vn 0.000000 0.965926 -0.258819
vn -0.000000 0.965926 -0.258819
vn -0.000000 0.965926 -0.258819
vn -0.000000 0.965926 -0.258819
vn -0.000000 0.965926 -0.258819
vn 0.000000 0.965926 -0.258819
vn 0.000000 0.965926 -0.258819
vn -0.000000 0.965926 -0.258819
vn 0.000000 0.965926 -0.258819
vn -0.000000 -0.965926 0.258819
vn 0.000000 -0.965926 0.258819
vn 0.000000 -0.965926 0.258819
vn 0.000000 -0.965926 0.258819
vn 0.000000 -0.965926 0.258820
vn 0.000000 -0.965926 0.258819
vn -0.000000 -0.965926 0.258820
vn 0.000000 -0.965926 0.258819
vn -0.000000 -0.965926 0.258820
vn 0.000001 -0.965926 0.258819
vn -0.000000 -0.965926 0.258819
vn 0.000000 -0.965926 0.258818
vn -0.000000 -0.965926 0.258819
vn -0.000000 -0.965926 0.258819
vn -0.000000 -0.965926 0.258819
vn -0.000000 -0.965926 0.258819
vn 0.000000 -0.965926 0.258819
vn 0.000000 -0.965926 0.258819
vn -0.000000 -0.965926 0.258820
vn 0.000000 -0.965926 0.258819
vn 0.000000 -0.965926 0.258819
vn -0.000000 -0.965926 0.258818
vn -0.000000 -0.965926 0.258819
vn 0.000000 -0.965926 0.258820
vn 0.000000 -0.965926 0.258819
vn 0.000000 -0.965926 0.258819
vn 0.000000 -0.965926 0.258819
vn 0.000000 -0.965926 0.258819
vn 0.000000 -0.965926 0.258819
vn 0.000000 -0.965926 0.258819
vn -0.000000 -0.965926 0.258819
vn 0.000000 -0.965926 0.258819
vn -0.000001 -0.965926 0.258819
vn -0.000000 -0.965926 0.258819
vn -0.000000 -0.965926 0.258818
vn 0.000000 -0.965926 0.258819
vn 0.000000 -0.965926 0.258819
vn 0.000000 -0.965926 0.258819
vn -0.000000 -0.965926 0.258818
vn 0.000000 -0.965926 0.258819
vn 0.000000 -0.965926 0.258819
vn 0.000000 -0.965926 0.258819
vn 0.000000 -0.965926 0.258820
vn 0.000000 -0.965926 0.258819
vn 0.000000 -0.965926 0.258819
vn 0.000000 -0.965926 0.258819
vn -0.000000 -0.965926 0.258819
vn -0.000000 -0.965926 0.258819
vn -0.000000 -0.965926 0.258819
vn 0.000000 -0.965926 0.258818
vn -0.000000 -0.965926 0.258819
vn 0.000000 -0.965926 0.258819
vn 0.000000 -0.965926 0.258819
vn -0.000000 -0.965926 0.258820
vn 0.000000 -0.965926 0.258819
vn -0.000000 -0.965926 0.258819
vn 0.000000 -0.965926 0.258819
vn -0.000000 -0.965926 0.258819
vn -0.000000 -0.965926 0.258819
vn -0.000000 -0.965926 0.258819
vn 0.559642 0.214492 0.800496
vn 0.559642 0.214492 0.800496
vn -0.497842 0.224466 0.837716
vn -0.497840 0.224466 0.837717
vn -0.612998 0.204489 0.763163
vn -0.612997 0.204489 0.763164
vn -0.716374 0.180582 0.673943
vn -0.716375 0.180582 0.673942
vn -0.805984 0.153205 0.571768
vn -0.805983 0.153205 0.571769
vn -0.880102 0.122884 0.458608
vn -0.880102 0.122884 0.458608
vn -0.937306 0.090200 0.336632
vn -0.937306 0.090200 0.336631
vn -0.976497 0.055783 0.208186
vn -0.976497 0.055783 0.208186
vn -0.996921 0.020295 0.075740
vn -0.996921 0.020295 0.075740
vn -0.998186 -0.015584 -0.058162
vn -0.998186 -0.015584 -0.058162
vn -0.980266 -0.051164 -0.190945
vn -0.980266 -0.051164 -0.190945
vn -0.943507 -0.085760 -0.320061
vn -0.888616 -0.118708 -0.443024
vn -0.943508 -0.085760 -0.320060
vn -0.888616 -0.118708 -0.443024
vn -0.816647 -0.149374 -0.557472
vn -0.816647 -0.149374 -0.557473
vn 1.000000 -0.000000 0.000000
vn 1.000000 0.000000 -0.000000
vn -0.000000 -0.002775 -0.999996
vn 0.000000 -0.002775 -0.999996
vn -1.000000 0.000000 0.000000
vn -1.000000 -0.000000 0.000000
vn -0.581280 0.210602 0.785977
vn -0.581280 0.210602 0.785977
vn -1.000000 0.000000 0.000000
vn -1.000000 -0.000000 0.000000
vn -0.819231 0.148424 0.553924
vn -0.819230 0.148424 0.553924
vn -0.878652 0.123576 0.461193
vn -0.878652 0.123576 0.461193
vn -0.926873 0.097154 0.362584
vn -0.926873 0.097154 0.362584
vn -0.963280 0.069493 0.259351
vn -0.963280 0.069493 0.259351
vn -0.987406 0.040946 0.152814
vn -0.998946 0.011878 0.044328
vn -0.987406 0.040946 0.152814
vn -0.998946 0.011878 0.044328
vn -0.997753 -0.017343 -0.064724
vn -0.997752 -0.017343 -0.064724
vn -0.983840 -0.046342 -0.172950
vn -0.983840 -0.046342 -0.172950
vn -0.957386 -0.074750 -0.278971
vn -0.918728 -0.102205 -0.381435
vn -0.957386 -0.074750 -0.278970
vn -0.868358 -0.128358 -0.479039
vn -0.918728 -0.102205 -0.381435
vn -0.868358 -0.128358 -0.479039
vn -0.806920 -0.152874 -0.570535
vn -0.806920 -0.152874 -0.570535
vn 0.611130 0.204863 0.764560
vn 0.611130 0.204863 0.764560
vn 0.823415 -0.146864 -0.548105
vn 0.823416 -0.146864 -0.548104
vn 0.893972 -0.115983 -0.432853
vn 0.947352 -0.082873 -0.309284
vn 0.893972 -0.115982 -0.432853
vn 0.947352 -0.082873 -0.309285
vn 0.982528 -0.048170 -0.179774
vn 0.982528 -0.048170 -0.179774
vn 0.998825 -0.012542 -0.046809
vn 0.998825 -0.012542 -0.046809
vn 0.995930 0.023327 0.087056
vn 0.995930 0.023327 0.087056
vn 0.973899 0.058747 0.219248
vn 0.973899 0.058747 0.219248
vn 0.933155 0.093039 0.347227
vn 0.933155 0.093039 0.347227
vn 0.874479 0.125543 0.468534
vn 0.874479 0.125544 0.468535
vn 0.799002 0.155635 0.580839
vn 0.708172 0.182737 0.681982
vn 0.799003 0.155635 0.580838
vn 0.603733 0.206327 0.770023
vn 0.708171 0.182737 0.681983
vn 0.603735 0.206327 0.770022
vn 0.487697 0.225952 0.843266
vn 0.487695 0.225953 0.843267
vn 1.000000 0.000000 -0.000000
vn 1.000000 0.000000 0.000000
vn 0.000000 0.258819 0.965926
vn 0.000000 0.258819 0.965926
vn -1.000000 -0.000000 0.000000
vn -1.000000 0.000000 -0.000000
f 1//1 2//1 3//1
f 3//2 2//2 4//2
f 4//3 5//3 6//3
f 2//4 5//4 4//4
f 6//5 7//5 8//5
f 5//6 7//6 6//6
f 8//7 9//7 10//7
f 7//8 9//8 8//8
f 10//9 11//9 12//9
f 9//10 11//10 10//10
f 12//11 13//11 14//11
f 11//12 13//12 12//12
f 14//13 15//13 16//13
f 13//14 15//14 14//14
f 16//15 17//15 18//15
f 15//16 17//16 16//16
f 18//17 19//17 20//17
f 17//18 19//18 18//18
f 20//19 21//19 22//19
f 19//20 21//20 20//20
f 22//21 23//21 24//21
f 21//22 23//22 22//22
f 24//23 25//23 26//23
f 23//24 25//24 24//24
f 27//25 1//25 3//25
f 27//26 3//26 28//26
f 25//27 29//27 26//27
f 26//28 29//28 30//28
f 31//29 32//29 33//29
f 32//30 34//30 33//30
f 35//31 36//31 37//31
f 35//32 38//32 32//32
f 37//33 38//33 35//33
f 32//34 38//34 34//34
f 39//35 40//35 41//35
f 41//36 40//36 35//36
f 35//37 40//37 36//37
f 38//38 42//38 34//38
f 43//39 44//39 39//39
f 39//40 44//40 40//40
f 45//41 46//41 43//41
f 43//42 46//42 44//42
f 47//43 48//43 45//43
f 45//44 48//44 46//44
f 34//45 49//45 33//45
f 50//46 51//46 52//46
f 52//47 51//47 47//47
f 47//48 51//48 48//48
f 49//49 53//49 33//49
f 50//50 54//50 51//50
f 55//51 54//51 50//51
f 55//52 56//52 54//52
f 57//53 56//53 55//53
f 58//54 59//54 57//54
f 57//55 59//55 56//55
f 49//56 27//56 53//56
f 58//57 60//57 59//57
f 61//58 60//58 58//58
f 27//59 62//59 53//59
f 49//60 63//60 27//60
f 64//61 63//61 49//61
f 61//62 65//62 60//62
f 66//63 65//63 61//63
f 67//64 1//64 63//64
f 68//65 1//65 67//65
f 63//66 1//66 27//66
f 69//67 2//67 68//67
f 68//68 2//68 1//68
f 70//69 5//69 69//69
f 69//70 5//70 2//70
f 71//71 7//71 70//71
f 70//72 7//72 5//72
f 72//73 9//73 71//73
f 71//74 9//74 7//74
f 73//75 11//75 72//75
f 72//76 11//76 9//76
f 73//77 13//77 11//77
f 74//78 15//78 73//78
f 73//79 15//79 13//79
f 75//80 17//80 74//80
f 74//81 17//81 15//81
f 76//82 19//82 75//82
f 75//83 19//83 17//83
f 77//84 21//84 76//84
f 76//85 21//85 19//85
f 29//86 23//86 77//86
f 77//87 23//87 21//87
f 29//88 25//88 23//88
f 78//89 79//89 80//89
f 81//90 78//90 80//90
f 82//91 83//91 84//91
f 85//92 83//92 78//92
f 85//93 84//93 83//93
f 85//94 78//94 81//94
f 86//95 87//95 88//95
f 86//96 88//96 83//96
f 86//97 83//97 82//97
f 89//98 85//98 81//98
f 90//99 91//99 87//99
f 90//100 87//100 86//100
f 92//101 93//101 91//101
f 92//102 91//102 90//102
f 94//103 95//103 93//103
f 94//104 93//104 92//104
f 96//105 80//105 97//105
f 96//106 81//106 80//106
f 98//107 95//107 94//107
f 98//108 99//108 100//108
f 98//109 100//109 95//109
f 101//110 99//110 98//110
f 101//111 102//111 99//111
f 103//112 102//112 101//112
f 103//113 104//113 102//113
f 105//114 106//114 104//114
f 105//115 104//115 103//115
f 28//116 96//116 97//116
f 107//117 106//117 105//117
f 107//118 108//118 106//118
f 109//119 28//119 97//119
f 110//120 96//120 28//120
f 110//121 111//121 96//121
f 112//122 113//122 108//122
f 112//123 108//123 107//123
f 3//124 114//124 110//124
f 3//125 115//125 114//125
f 3//126 110//126 28//126
f 4//127 116//127 115//127
f 4//128 115//128 3//128
f 6//129 117//129 116//129
f 6//130 116//130 4//130
f 8//131 118//131 117//131
f 8//132 117//132 6//132
f 10//133 119//133 118//133
f 10//134 118//134 8//134
f 12//135 120//135 119//135
f 12//136 119//136 10//136
f 14//137 120//137 12//137
f 16//138 121//138 120//138
f 16//139 120//139 14//139
f 18//140 122//140 121//140
f 18//141 121//141 16//141
f 20//142 123//142 122//142
f 20//143 122//143 18//143
f 22//144 124//144 123//144
f 22//145 123//145 20//145
f 24//146 30//146 124//146
f 24//147 124//147 22//147
f 26//148 30//148 24//148
f 62//149 27//149 28//149
f 62//150 28//150 109//150
f 63//151 64//151 111//151
f 63//152 111//152 110//152
f 67//153 110//153 114//153
f 67//154 63//154 110//154
f 68//155 114//155 115//155
f 68//156 67//156 114//156
f 69//157 115//157 116//157
f 69//158 68//158 115//158
f 70//159 116//159 117//159
f 70//160 69//160 116//160
f 71//161 117//161 118//161
f 71//162 70//162 117//162
f 72//163 118//163 119//163
f 72//164 71//164 118//164
f 73//165 119//165 120//165
f 73//166 72//166 119//166
f 74//167 120//167 121//167
f 74//168 73//168 120//168
f 75//169 121//169 122//169
f 75//170 74//170 121//170
f 76//171 122//171 123//171
f 76//172 123//172 124//172
f 76//173 75//173 122//173
f 77//174 76//174 124//174
f 29//175 124//175 30//175
f 29//176 77//176 124//176
f 97//177 53//177 109//177
f 53//178 62//178 109//178
f 53//179 80//179 33//179
f 53//180 97//180 80//180
f 33//181 80//181 79//181
f 31//182 33//182 79//182
f 32//183 31//183 78//183
f 78//184 31//184 79//184
f 35//185 32//185 78//185
f 35//186 78//186 83//186
f 66//187 61//187 113//187
f 113//188 61//188 108//188
f 108//189 58//189 106//189
f 61//190 58//190 108//190
f 106//191 57//191 104//191
f 58//192 57//192 106//192
f 104//193 55//193 102//193
f 57//194 55//194 104//194
f 102//195 50//195 99//195
f 99//196 50//196 100//196
f 55//197 50//197 102//197
f 50//198 52//198 100//198
f 100//199 47//199 95//199
f 52//200 47//200 100//200
f 95//201 45//201 93//201
f 47//202 45//202 95//202
f 93//203 43//203 91//203
f 91//204 43//204 87//204
f 45//205 43//205 93//205
f 87//206 39//206 88//206
f 43//207 39//207 87//207
f 39//208 41//208 88//208
f 88//209 35//209 83//209
f 41//210 35//210 88//210
f 65//211 66//211 113//211
f 65//212 113//212 112//212
f 60//213 65//213 112//213
f 60//214 112//214 107//214
f 59//215 107//215 105//215
f 59//216 105//216 103//216
f 59//217 60//217 107//217
f 56//218 59//218 103//218
f 54//219 103//219 101//219
f 54//220 56//220 103//220
f 51//221 101//221 98//221
f 51//222 54//222 101//222
f 48//223 98//223 94//223
f 48//224 51//224 98//224
f 46//225 94//225 92//225
f 46//226 48//226 94//226
f 44//227 92//227 90//227
f 44//228 46//228 92//228
f 40//229 90//229 86//229
f 40//230 44//230 90//230
f 36//231 86//231 82//231
f 36//232 82//232 84//232
f 36//233 40//233 86//233
f 37//234 84//234 85//234
f 37//235 36//235 84//235
f 38//236 37//236 85//236
f 42//237 85//237 89//237
f 42//238 38//238 85//238
f 34//239 42//239 89//239
f 34//240 89//240 81//240
f 49//241 34//241 81//241
f 49//242 81//242 96//242
f 64//243 49//243 111//243
f 111//244 49//244 96//244
